<?xml version="1.0" standalone="no"?><!DOCTYPE svg PUBLIC "-//W3C//DTD SVG 1.1//EN" "http://www.w3.org/Graphics/SVG/1.1/DTD/svg11.dtd"><svg class="icon" width="200px" height="200.00px" viewBox="0 0 1024 1024" version="1.1" xmlns="http://www.w3.org/2000/svg"><path d="M512 240m-224 0a224 224 0 1 0 448 0 224 224 0 1 0-448 0Z" fill="#FFC252" /><path d="M704 480H320c-26.464 0-48-21.536-48-48V48c0-26.464 21.536-48 48-48h384c26.464 0 48 21.536 48 48v384c0 26.464-21.536 48-48 48zM320 32c-8.816 0-16 7.184-16 16v384c0 8.816 7.184 16 16 16h384c8.832 0 16-7.184 16-16V48c0-8.816-7.168-16-16-16H320z" fill="#34303D" /><path d="M336 224h32v32h-32zM656 224h32v32h-32zM592 384h-32V176c0-12.816-5.008-24.864-14.064-33.936-18.128-18.144-49.76-18.144-67.872 0C468.992 151.136 464 163.184 464 176v208h-32V176c0-21.344 8.32-41.44 23.424-56.56C470.544 104.336 490.624 96 512 96c21.376 0 41.472 8.336 56.56 23.44C583.664 134.544 592 154.64 592 176v208z" fill="#34303D" /><path d="M448 224h128v32h-128z" fill="#34303D" /><path d="M240 784m-224 0a224 224 0 1 0 448 0 224 224 0 1 0-448 0Z" fill="#FF5F5C" /><path d="M432 1024H48c-26.464 0-48-21.536-48-48V592c0-26.464 21.536-48 48-48h384c26.464 0 48 21.536 48 48v384c0 26.464-21.536 48-48 48zM48 576c-8.816 0-16 7.168-16 16v384c0 8.832 7.184 16 16 16h384c8.816 0 16-7.168 16-16V592c0-8.832-7.184-16-16-16H48z" fill="#34303D" /><path d="M64 768h32v32H64zM384 768h32v32h-32zM240 800H160v-160h80c21.376 0 41.472 8.336 56.576 23.44C311.68 678.56 320 698.64 320 720s-8.32 41.44-23.424 56.56C281.472 791.664 261.376 800 240 800z m-48-32h48c12.832 0 24.88-4.992 33.936-14.064C283.008 744.864 288 732.816 288 720s-4.992-24.864-14.064-33.936C264.88 676.992 252.832 672 240 672H192v96z" fill="#34303D" /><path d="M240 928H160v-160h80c21.376 0 41.472 8.336 56.576 23.44S320 826.64 320 848c0 21.376-8.336 41.472-23.44 56.56C281.472 919.664 261.376 928 240 928z m-48-32h48c12.832 0 24.88-4.992 33.936-14.064C283.008 872.88 288 860.832 288 848s-4.992-24.88-14.064-33.936C264.88 804.992 252.832 800 240 800H192v96z" fill="#34303D" /><path d="M784 784m-224 0a224 224 0 1 0 448 0 224 224 0 1 0-448 0Z" fill="#57DCF2" /><path d="M976 1024H592c-26.464 0-48-21.536-48-48V592c0-26.464 21.536-48 48-48h384c26.464 0 48 21.536 48 48v384c0 26.464-21.536 48-48 48zM592 576c-8.832 0-16 7.168-16 16v384c0 8.832 7.168 16 16 16h384c8.832 0 16-7.168 16-16V592c0-8.832-7.168-16-16-16H592z" fill="#34303D" /><path d="M608 768h32v32h-32zM928 768h32v32h-32zM784 928c-21.376 0-41.472-8.336-56.576-23.44C712.336 889.472 704 869.376 704 848v-128c0-21.36 8.336-41.456 23.44-56.56C742.528 648.336 762.624 640 784 640s41.472 8.336 56.576 23.44C855.664 678.544 864 698.64 864 720h-32c0-12.816-5.008-24.88-14.064-33.936-18.128-18.16-49.76-18.16-67.856 0A47.66 47.66 0 0 0 736 720v128c0 12.832 4.992 24.88 14.064 33.92 18.128 18.192 49.76 18.176 67.856 0.016C827.008 872.88 832 860.832 832 848h32c0 21.376-8.336 41.472-23.44 56.576C825.472 919.664 805.376 928 784 928z" fill="#34303D" /></svg>