<?xml version="1.0" standalone="no"?><!DOCTYPE svg PUBLIC "-//W3C//DTD SVG 1.1//EN" "http://www.w3.org/Graphics/SVG/1.1/DTD/svg11.dtd"><svg class="icon" width="200px" height="200.00px" viewBox="0 0 1024 1024" version="1.1" xmlns="http://www.w3.org/2000/svg"><path d="M16.000677 225.59758h991.988334V833.590297H16.000677z" fill="#FFFFFF" /><path d="M1007.986948 849.588911H16.000677c-9.600819 0-16.000677-6.399858-16.000677-16.000677V225.59758c0-9.600819 6.399858-16.000677 16.000677-16.000677h991.988334c9.600819 0 16.000677 6.399858 16.000677 16.000677V833.590297c-0.002062 7.998276-6.401921 15.998614-16.00274 15.998614zM31.999291 817.58962H991.988334V241.596194H31.999291v575.993426z" fill="#193651" /><path d="M16.000677 63.998582h991.988334v163.197416H16.000677z" fill="#1296db" /><path d="M1007.986948 241.596194H16.000677c-9.600819 0-16.000677-6.399858-16.000677-16.000677V63.998582c0-9.600819 6.399858-16.000677 16.000677-16.000677h991.988334c9.600819 0 16.000677 6.399858 16.000677 16.000677v163.197416c-0.002062 8.000338-6.401921 14.400197-16.00274 14.400196zM31.999291 209.596903H991.988334V79.999259H31.999291v129.597644z" fill="#193651" /><path d="M873.589926 124.798266c-9.600819 0-16.000677-6.399858-16.000677-16.000677V16.000677c0-9.600819 6.399858-16.000677 16.000677-16.000677 9.600819 0 16.000677 6.399858 16.000677 16.000677v92.798975c-0.002062 7.998276-8.002401 15.998614-16.000677 15.998614zM729.590023 124.798266c-9.600819 0-16.000677-6.399858-16.000677-16.000677V16.000677c0-9.600819 6.399858-16.000677 16.000677-16.000677s16.000677 6.399858 16.000677 16.000677v92.798975c0 7.998276-8.000338 15.998614-16.000677 15.998614zM583.993764 124.798266c-9.600819 0-16.000677-6.399858-16.000677-16.000677V16.000677c0-9.600819 6.399858-16.000677 16.000677-16.000677s16.000677 6.399858 16.000677 16.000677v92.798975c-0.002062 7.998276-6.401921 15.998614-16.000677 15.998614zM439.993861 124.798266c-9.600819 0-16.000677-6.399858-16.000677-16.000677V16.000677c0-9.600819 6.399858-16.000677 16.000677-16.000677 9.600819 0 16.000677 6.399858 16.000677 16.000677v92.798975c0 7.998276-8.000338 15.998614-16.000677 15.998614zM294.39554 124.798266c-9.600819 0-16.000677-6.399858-16.000677-16.000677V16.000677c0-9.600819 6.399858-16.000677 16.000677-16.000677 9.600819 0 16.000677 6.399858 16.000677 16.000677v92.798975c0 7.998276-6.399858 15.998614-16.000677 15.998614zM150.397699 124.798266c-9.600819 0-16.000677-6.399858-16.000677-16.000677V16.000677C134.399085 6.399858 140.798943 0 150.397699 0s16.000677 6.399858 16.000677 16.000677v92.798975c0 7.998276-6.399858 15.998614-16.000677 15.998614z" fill="#193651" /><path d="M471.993152 289.596162h79.999259V369.595421h-79.999259zM603.193339 289.596162h79.999259V369.595421h-79.999259zM734.391463 289.596162h79.999259V369.595421h-79.999259zM863.989108 289.596162h79.999258V369.595421h-79.999258zM79.999259 417.595388h79.999259v79.999259H79.999259zM211.197383 417.595388h79.999259v79.999259H211.197383zM340.795028 417.595388h79.999258v79.999259h-79.999258zM471.993152 417.595388h79.999259v79.999259h-79.999259zM603.193339 417.595388h79.999259v79.999259h-79.999259zM734.391463 417.595388h79.999259v79.999259h-79.999259zM863.989108 417.595388h79.999258v79.999259h-79.999258z" fill="#E1E6E9" /><path d="M511.992781 783.989849m-223.997099 0a223.9971 223.9971 0 1 0 447.994199 0 223.9971 223.9971 0 1 0-447.994199 0Z" fill="#FDBF5E" /><path d="M511.992781 1023.987625c-132.798605 0-239.997776-107.199172-239.997776-239.997776s107.199172-239.997776 239.997776-239.997777 239.997776 107.199172 239.997777 239.997777-107.199172 239.997776-239.997777 239.997776z m0-449.594679c-115.19951 0-207.996423 94.399455-207.996423 207.998485 0 115.19951 94.399455 207.996423 207.996423 207.996423s207.996423-94.399455 207.996423-207.996423c0.002062-113.59903-92.796913-207.998485-207.996423-207.998485z" fill="#193651" /><path d="M511.992781 943.988366c-87.999597 0-159.998518-71.99892-159.998517-159.998517s71.99892-159.998518 159.998517-159.998518 159.998518 71.99892 159.998518 159.998518-71.99892 159.998518-159.998518 159.998517z" fill="#FFFFFF" /><path d="M79.999259 545.592553h79.999259v79.999258H79.999259z" fill="#E1E6E9" /><path d="M211.197383 545.592553h79.999259v79.999258H211.197383z" fill="#FFFFFF" /><path d="M734.391463 545.592553h79.999259v79.999258h-79.999259zM863.989108 545.592553h79.999258v79.999258h-79.999258zM79.999259 689.592456h79.999259v79.999259H79.999259z" fill="#E1E6E9" /><path d="M579.192324 711.990928l-91.198495 91.198495-43.198528-41.598047L412.793948 791.990187l75.199881 75.199881 123.197786-123.199849z" fill="#193651" /></svg>