<?xml version="1.0" standalone="no"?><!DOCTYPE svg PUBLIC "-//W3C//DTD SVG 1.1//EN" "http://www.w3.org/Graphics/SVG/1.1/DTD/svg11.dtd"><svg class="icon" width="200px" height="200.00px" viewBox="0 0 1024 1024" version="1.1" xmlns="http://www.w3.org/2000/svg"><path d="M931.198028 16.000838H92.79991c-41.600529 0-76.799072 35.200606-76.799072 76.799072v166.400051h991.998324V92.79991c-0.002062-41.600529-35.200606-76.799072-76.801134-76.799072z" fill="#E1E6E9" /><path d="M1007.9971 275.198737H16.000838c-9.600915 0-16.000838-6.399923-16.000838-16.000838V92.79991C0 41.600529 41.600529 0 92.79991 0h836.797621c52.799878 0 94.400406 41.600529 94.400407 92.79991v166.400051c0 9.598853-6.399923 15.998775-16.000838 15.998776zM31.999613 243.199123H991.998324V92.79991c0-33.60011-27.200187-60.800296-60.800296-60.800297H92.79991c-33.60011 0-60.800296 27.200187-60.800297 60.800297v150.399213z" fill="#193651" /><path d="M16.000838 259.199961v670.39757c0 43.198962 35.200606 78.399568 76.799072 78.399569h836.797621c43.198962 0 76.799072-35.200606 76.799072-76.799072V259.199961H16.000838z" fill="#FDBF5E" /><path d="M931.198028 1023.997938H92.79991C41.600529 1023.997938 0 982.397409 0 931.198028V259.199961c0-9.600915 6.399923-16.000838 16.000838-16.000838h991.998324c9.600915 0 16.000838 6.399923 16.000838 16.000838v670.39757c-0.002062 52.799878-41.602591 94.400406-92.801972 94.400407zM31.999613 275.198737v654.398794c0 35.200606 27.200187 62.400793 60.800297 62.400793h836.797621c33.60011 0 60.800296-27.200187 60.800297-60.800296V275.198737H31.999613z" fill="#193651" /><path d="M92.79991 945.598369c-8.000419 0-16.000838-6.399923-16.000838-16.000838V321.598692h867.198801v607.998839c0 8.000419-6.399923 16.000838-16.000838 16.000838H92.79991z" fill="#FFFFFF" /><path d="M798.398086 137.599368m-46.399955 0a46.399955 46.399955 0 1 0 92.79991 0 46.399955 46.399955 0 1 0-92.79991 0Z" fill="#FFFFFF" /><path d="M798.398086 200.000161c-33.60011 0-62.400793-27.200187-62.400793-62.400793 0-33.60011 27.200187-62.400793 62.400793-62.400792 33.60011 0 62.400793 27.200187 62.400793 62.400792S831.998195 200.000161 798.398086 200.000161z m0-92.79991c-16.000838 0-30.399117 12.799845-30.399117 30.399117s12.799845 30.399117 30.399117 30.399117c16.000838 0 30.399117-12.799845 30.399117-30.399117s-14.398279-30.399117-30.399117-30.399117z" fill="#193651" /><path d="M225.599852 137.599368m-46.399955 0a46.399955 46.399955 0 1 0 92.79991 0 46.399955 46.399955 0 1 0-92.79991 0Z" fill="#FFFFFF" /><path d="M225.599852 200.000161c-33.60011 0-62.400793-27.200187-62.400793-62.400793 0-33.60011 27.200187-62.400793 62.400793-62.400792 33.60011 0 62.400793 27.200187 62.400793 62.400792S259.199961 200.000161 225.599852 200.000161z m0-92.79991c-16.000838 0-30.399117 12.799845-30.399117 30.399117s12.799845 30.399117 30.399117 30.399117c16.000838 0 30.399117-12.799845 30.399117-30.399117s-14.400342-30.399117-30.399117-30.399117z" fill="#193651" /><path d="M670.39757 366.39815h80.000065v75.200638h-80.000065zM803.197512 366.39815h80.000065v75.200638H803.197512zM139.199865 481.598821h80.000064v75.200638H139.199865zM271.999807 481.598821h80.000064v75.200638h-80.000064zM404.799749 481.598821h80.000064v75.200638h-80.000064zM537.599691 481.598821h80.000064v75.200638h-80.000064zM670.39757 481.598821h80.000065v75.200638h-80.000065zM803.197512 481.598821h80.000065v75.200638H803.197512zM139.199865 596.799491h80.000064v75.200638H139.199865z" fill="#E1E6E9" /><path d="M271.999807 596.799491h80.000064v75.200638h-80.000064z" fill="#2EA2DB" /><path d="M404.799749 596.799491h80.000064v75.200638h-80.000064zM537.599691 596.799491h80.000064v75.200638h-80.000064zM670.39757 596.799491h80.000065v75.200638h-80.000065zM803.197512 596.799491h80.000065v75.200638H803.197512zM139.199865 710.397602h80.000064v75.200638H139.199865zM271.999807 710.397602h80.000064v75.200638h-80.000064zM404.799749 710.397602h80.000064v75.200638h-80.000064zM537.599691 710.397602h80.000064v75.200638h-80.000064z" fill="#E1E6E9" /><path d="M670.39757 710.397602h80.000065v75.200638h-80.000065z" fill="#2EA2DB" /><path d="M803.197512 710.397602h80.000065v75.200638H803.197512zM139.199865 825.598273h80.000064v75.200638H139.199865zM271.999807 825.598273h80.000064v75.200638h-80.000064zM404.799749 825.598273h80.000064v75.200638h-80.000064z" fill="#E1E6E9" /><path d="M409.599175 121.600593h31.999613v31.999613h-31.999613zM495.999162 121.600593H527.998775v31.999613h-31.999613z" fill="#193651" /><path d="M582.399149 121.600593h31.999614v31.999613h-31.999614z" fill="#193651" /></svg>