<?xml version="1.0" standalone="no"?><!DOCTYPE svg PUBLIC "-//W3C//DTD SVG 1.1//EN" "http://www.w3.org/Graphics/SVG/1.1/DTD/svg11.dtd"><svg class="icon" width="200px" height="200.00px" viewBox="0 0 1024 1024" version="1.1" xmlns="http://www.w3.org/2000/svg"><path d="M300.8 258.133333a298.666667 298.666667 0 0 1 422.4 422.4l-150.869333 150.826667a85.333333 85.333333 0 0 1-120.661334 0L300.8 680.533333a298.666667 298.666667 0 0 1 0-422.4z" fill="#C8EBFF" /><path d="M149.97044 444.330667m150.849447-150.849447l0 0q150.849447-150.849447 301.698893 0l0 0q150.849447 150.849447 0 301.698893l0 0q-150.849447 150.849447-301.698893 0l0 0q-150.849447-150.849447 0-301.698893Z" fill="#D5F0FF" /><path d="M227.983331 358.997333m90.509668-90.509668l0 0q90.509668-90.509668 181.019336 0l0 0q90.509668 90.509668 0 181.019336l0 0q-90.509668 90.509668-181.019336 0l0 0q-90.509668-90.509668 0-181.019336Z" fill="#E1F4FF" /><path d="M300.8 258.133333a298.666667 298.666667 0 0 1 422.4 422.4l-150.869333 150.826667a85.333333 85.333333 0 0 1-120.661334 0L300.8 680.533333a298.666667 298.666667 0 0 1 0-422.4z m30.165333 30.165334a256 256 0 0 0 0 362.069333l150.869334 150.826667a42.666667 42.666667 0 0 0 60.330666 0l150.869334-150.826667a256 256 0 0 0-362.069334-362.069333z" fill="#333333" /><path d="M512 341.333333a128 128 0 1 1 0 256 128 128 0 0 1 0-256z m0 42.666667a85.333333 85.333333 0 1 0 0 170.666667 85.333333 85.333333 0 0 0 0-170.666667z" fill="#333333" /></svg>