<?xml version="1.0" standalone="no"?><!DOCTYPE svg PUBLIC "-//W3C//DTD SVG 1.1//EN" "http://www.w3.org/Graphics/SVG/1.1/DTD/svg11.dtd"><svg class="icon" width="200px" height="200.00px" viewBox="0 0 1024 1024" version="1.1" xmlns="http://www.w3.org/2000/svg"><path d="M170.666667 213.333333m85.333333 0l512 0q85.333333 0 85.333333 85.333334l0 384q0 85.333333-85.333333 85.333333l-512 0q-85.333333 0-85.333333-85.333333l0-384q0-85.333333 85.333333-85.333334Z" fill="#CDF1FF" /><path d="M645.717333 213.290667a320 320 0 0 1-475.136 405.333333L170.666667 298.666667a85.333333 85.333333 0 0 1 85.333333-85.333334l389.717333-0.042666z" fill="#DAF1FF" /><path d="M551.125333 213.290667a256 256 0 0 1-380.544 264.448L170.666667 298.666667a85.333333 85.333333 0 0 1 85.333333-85.333334l295.125333-0.042666z" fill="#E5F1FF" /><path d="M768 213.333333a85.333333 85.333333 0 0 1 85.333333 85.333334v384a85.333333 85.333333 0 0 1-85.333333 85.333333H256a85.333333 85.333333 0 0 1-85.333333-85.333333V298.666667a85.333333 85.333333 0 0 1 85.333333-85.333334h512z m0 42.666667H256a42.666667 42.666667 0 0 0-42.666667 42.666667v384a42.666667 42.666667 0 0 0 42.666667 42.666666h512a42.666667 42.666667 0 0 0 42.666667-42.666666V298.666667a42.666667 42.666667 0 0 0-42.666667-42.666667z" fill="#333333" /><path d="M695.338667 385.834667a21.333333 21.333333 0 1 1 17.322666 38.997333l-174.677333 77.653333a64 64 0 0 1-51.968 0l-174.677333-77.653333a21.333333 21.333333 0 1 1 17.322666-38.997333l174.677334 77.653333a21.333333 21.333333 0 0 0 17.322666 0l174.677334-77.653333z" fill="#333333" /></svg>